<svg width="30" height="30" viewBox="0 0 30 30" fill="none" xmlns="http://www.w3.org/2000/svg">
<path d="M0.833332 15C0.833332 9.65777 0.833332 6.98594 2.49367 5.32702C4.154 3.6681 6.82442 3.66669 12.1667 3.66669H17.8333C23.1756 3.66669 25.8474 3.66669 27.5063 5.32702C29.1652 6.98735 29.1667 9.65777 29.1667 15V17.8334C29.1667 23.1756 29.1667 25.8474 27.5063 27.5064C25.846 29.1653 23.1756 29.1667 17.8333 29.1667H12.1667C6.82442 29.1667 4.15258 29.1667 2.49367 27.5064C0.834749 25.846 0.833332 23.1756 0.833332 17.8334V15Z" stroke="white" stroke-width="1.5"/>
<path d="M7.91666 3.66669V1.54169M22.0833 3.66669V1.54169M1.54166 10.75H28.4583" stroke="white" stroke-width="1.5" stroke-linecap="round"/>
<path d="M23.5 22.0833C23.5 22.4591 23.3507 22.8194 23.0851 23.0851C22.8194 23.3507 22.4591 23.5 22.0833 23.5C21.7076 23.5 21.3473 23.3507 21.0816 23.0851C20.8159 22.8194 20.6667 22.4591 20.6667 22.0833C20.6667 21.7076 20.8159 21.3473 21.0816 21.0816C21.3473 20.8159 21.7076 20.6667 22.0833 20.6667C22.4591 20.6667 22.8194 20.8159 23.0851 21.0816C23.3507 21.3473 23.5 21.7076 23.5 22.0833ZM23.5 16.4167C23.5 16.7924 23.3507 17.1527 23.0851 17.4184C22.8194 17.6841 22.4591 17.8333 22.0833 17.8333C21.7076 17.8333 21.3473 17.6841 21.0816 17.4184C20.8159 17.1527 20.6667 16.7924 20.6667 16.4167C20.6667 16.0409 20.8159 15.6806 21.0816 15.4149C21.3473 15.1493 21.7076 15 22.0833 15C22.4591 15 22.8194 15.1493 23.0851 15.4149C23.3507 15.6806 23.5 16.0409 23.5 16.4167ZM16.4167 22.0833C16.4167 22.4591 16.2674 22.8194 16.0017 23.0851C15.7361 23.3507 15.3757 23.5 15 23.5C14.6243 23.5 14.2639 23.3507 13.9983 23.0851C13.7326 22.8194 13.5833 22.4591 13.5833 22.0833C13.5833 21.7076 13.7326 21.3473 13.9983 21.0816C14.2639 20.8159 14.6243 20.6667 15 20.6667C15.3757 20.6667 15.7361 20.8159 16.0017 21.0816C16.2674 21.3473 16.4167 21.7076 16.4167 22.0833ZM16.4167 16.4167C16.4167 16.7924 16.2674 17.1527 16.0017 17.4184C15.7361 17.6841 15.3757 17.8333 15 17.8333C14.6243 17.8333 14.2639 17.6841 13.9983 17.4184C13.7326 17.1527 13.5833 16.7924 13.5833 16.4167C13.5833 16.0409 13.7326 15.6806 13.9983 15.4149C14.2639 15.1493 14.6243 15 15 15C15.3757 15 15.7361 15.1493 16.0017 15.4149C16.2674 15.6806 16.4167 16.0409 16.4167 16.4167ZM9.33333 22.0833C9.33333 22.4591 9.18408 22.8194 8.9184 23.0851C8.65272 23.3507 8.29239 23.5 7.91667 23.5C7.54094 23.5 7.18061 23.3507 6.91493 23.0851C6.64926 22.8194 6.5 22.4591 6.5 22.0833C6.5 21.7076 6.64926 21.3473 6.91493 21.0816C7.18061 20.8159 7.54094 20.6667 7.91667 20.6667C8.29239 20.6667 8.65272 20.8159 8.9184 21.0816C9.18408 21.3473 9.33333 21.7076 9.33333 22.0833ZM9.33333 16.4167C9.33333 16.7924 9.18408 17.1527 8.9184 17.4184C8.65272 17.6841 8.29239 17.8333 7.91667 17.8333C7.54094 17.8333 7.18061 17.6841 6.91493 17.4184C6.64926 17.1527 6.5 16.7924 6.5 16.4167C6.5 16.0409 6.64926 15.6806 6.91493 15.4149C7.18061 15.1493 7.54094 15 7.91667 15C8.29239 15 8.65272 15.1493 8.9184 15.4149C9.18408 15.6806 9.33333 16.0409 9.33333 16.4167Z" fill="white"/>
</svg>
