<svg width="28" height="28" viewBox="0 0 28 28" fill="none" xmlns="http://www.w3.org/2000/svg">
<path d="M14 8.33331V26.75M1.25 9.74998C1.25 9.37426 1.39926 9.01392 1.66493 8.74825C1.93061 8.48257 2.29094 8.33331 2.66667 8.33331H25.3333C25.7091 8.33331 26.0694 8.48257 26.3351 8.74825C26.6007 9.01392 26.75 9.37426 26.75 9.74998V12.5833C26.75 12.959 26.6007 13.3194 26.3351 13.585C26.0694 13.8507 25.7091 14 25.3333 14H2.66667C2.29094 14 1.93061 13.8507 1.66493 13.585C1.39926 13.3194 1.25 12.959 1.25 12.5833V9.74998Z" stroke="white" stroke-width="2" stroke-linecap="round" stroke-linejoin="round"/>
<path d="M23.9167 14V23.9167C23.9167 24.6681 23.6182 25.3888 23.0868 25.9201C22.5555 26.4515 21.8348 26.75 21.0833 26.75H6.91667C6.16522 26.75 5.44455 26.4515 4.9132 25.9201C4.38185 25.3888 4.08334 24.6681 4.08334 23.9167V14M7.625 8.33334C6.68569 8.33334 5.78486 7.9602 5.12067 7.29601C4.45647 6.63182 4.08334 5.73098 4.08334 4.79168C4.08334 3.85237 4.45647 2.95153 5.12067 2.28734C5.78486 1.62315 6.68569 1.25001 7.625 1.25001C8.99164 1.2262 10.3309 1.88929 11.468 3.15282C12.6052 4.41635 13.4876 6.22166 14 8.33334C14.5124 6.22166 15.3948 4.41635 16.532 3.15282C17.6691 1.88929 19.0084 1.2262 20.375 1.25001C21.3143 1.25001 22.2151 1.62315 22.8793 2.28734C23.5435 2.95153 23.9167 3.85237 23.9167 4.79168C23.9167 5.73098 23.5435 6.63182 22.8793 7.29601C22.2151 7.9602 21.3143 8.33334 20.375 8.33334" stroke="white" stroke-width="2" stroke-linecap="round" stroke-linejoin="round"/>
</svg>
